<mxfile host="app.diagrams.net" agent="Mozilla/5.0 (Windows NT 10.0; Win64; x64; rv:130.0) Gecko/20100101 Firefox/130.0" version="24.7.5">
  <diagram id="prtHgNgQTEPvFCAcTncT" name="Page-1">
    <mxGraphModel dx="1500" dy="934" grid="1" gridSize="10" guides="1" tooltips="1" connect="1" arrows="1" fold="1" page="1" pageScale="1" pageWidth="827" pageHeight="1169" background="#ffffff" math="0" shadow="0">
      <root>
        <mxCell id="0" />
        <mxCell id="1" parent="0" />
        <mxCell id="dNxyNK7c78bLwvsdeMH5-11" value="&lt;font style=&quot;font-size: 18px;&quot;&gt;Arquitectura de la información&lt;/font&gt;" style="swimlane;html=1;startSize=20;horizontal=1;containerType=tree;glass=0;strokeWidth=2;fontSize=18;verticalAlign=middle;rounded=1;" parent="1" vertex="1">
          <mxGeometry x="40" y="80" width="1050" height="290" as="geometry" />
        </mxCell>
        <UserObject label="Inicio" name="Edward Morrison" position="Brand Manager" location="Office 2" email="me@example.com" placeholders="1" id="dNxyNK7c78bLwvsdeMH5-14">
          <mxCell style="label;whiteSpace=wrap;html=1;rounded=1;glass=0;treeFolding=1;treeMoving=1;spacingLeft=0;align=center;fontSize=24;strokeWidth=3;" parent="dNxyNK7c78bLwvsdeMH5-11" vertex="1">
            <mxGeometry x="20" y="180" width="180" height="80" as="geometry" />
          </mxCell>
        </UserObject>
        <mxCell id="a0p3vjBMCM_WjcR9u9X9-12" style="edgeStyle=orthogonalEdgeStyle;rounded=0;orthogonalLoop=1;jettySize=auto;html=1;exitX=0;exitY=0.5;exitDx=0;exitDy=0;entryX=1;entryY=0.5;entryDx=0;entryDy=0;endArrow=none;endFill=0;strokeWidth=3;fontSize=24;" edge="1" parent="dNxyNK7c78bLwvsdeMH5-11" source="dNxyNK7c78bLwvsdeMH5-16" target="dNxyNK7c78bLwvsdeMH5-14">
          <mxGeometry relative="1" as="geometry" />
        </mxCell>
        <mxCell id="a0p3vjBMCM_WjcR9u9X9-13" style="edgeStyle=orthogonalEdgeStyle;rounded=0;orthogonalLoop=1;jettySize=auto;html=1;exitX=1;exitY=0.5;exitDx=0;exitDy=0;entryX=0;entryY=0.5;entryDx=0;entryDy=0;endArrow=none;endFill=0;strokeWidth=3;fontSize=24;" edge="1" parent="dNxyNK7c78bLwvsdeMH5-11" source="dNxyNK7c78bLwvsdeMH5-16" target="dNxyNK7c78bLwvsdeMH5-18">
          <mxGeometry relative="1" as="geometry" />
        </mxCell>
        <UserObject label="Menú" name="Evan Valet" position="HR Director" location="Office 4" email="me@example.com" placeholders="1" id="dNxyNK7c78bLwvsdeMH5-16">
          <mxCell style="label;whiteSpace=wrap;html=1;rounded=1;glass=0;treeFolding=1;treeMoving=1;fontSize=24;align=center;spacingLeft=0;strokeWidth=3;" parent="dNxyNK7c78bLwvsdeMH5-11" vertex="1">
            <mxGeometry x="228" y="180" width="180" height="80" as="geometry" />
          </mxCell>
        </UserObject>
        <mxCell id="a0p3vjBMCM_WjcR9u9X9-14" style="edgeStyle=orthogonalEdgeStyle;rounded=0;orthogonalLoop=1;jettySize=auto;html=1;entryX=0;entryY=0.5;entryDx=0;entryDy=0;endArrow=none;endFill=0;strokeWidth=3;fontSize=24;" edge="1" parent="dNxyNK7c78bLwvsdeMH5-11" source="dNxyNK7c78bLwvsdeMH5-18" target="a0p3vjBMCM_WjcR9u9X9-4">
          <mxGeometry relative="1" as="geometry" />
        </mxCell>
        <UserObject label="Ubicación" name="Alison Donovan" position="System Admin" location="Office 3" email="me@example.com" placeholders="1" id="dNxyNK7c78bLwvsdeMH5-18">
          <mxCell style="label;whiteSpace=wrap;html=1;rounded=1;glass=0;fontSize=24;spacingLeft=0;align=center;strokeWidth=3;" parent="dNxyNK7c78bLwvsdeMH5-11" vertex="1">
            <mxGeometry x="435" y="180" width="180" height="80" as="geometry" />
          </mxCell>
        </UserObject>
        <UserObject label="Estación del Sabor" name="Tessa Miller" position="CFO" location="Office 1" email="me@example.com" placeholders="1" id="dNxyNK7c78bLwvsdeMH5-12">
          <mxCell style="label;whiteSpace=wrap;html=1;rounded=1;glass=0;treeMoving=1;treeFolding=1;shadow=0;align=center;spacingLeft=0;fontSize=24;strokeWidth=3;" parent="dNxyNK7c78bLwvsdeMH5-11" vertex="1">
            <mxGeometry x="20" y="50" width="1010" height="70" as="geometry" />
          </mxCell>
        </UserObject>
        <mxCell id="a0p3vjBMCM_WjcR9u9X9-15" style="edgeStyle=orthogonalEdgeStyle;rounded=0;orthogonalLoop=1;jettySize=auto;html=1;entryX=0;entryY=0.5;entryDx=0;entryDy=0;endArrow=none;endFill=0;strokeWidth=3;fontSize=24;" edge="1" parent="dNxyNK7c78bLwvsdeMH5-11" source="a0p3vjBMCM_WjcR9u9X9-4" target="a0p3vjBMCM_WjcR9u9X9-6">
          <mxGeometry relative="1" as="geometry" />
        </mxCell>
        <UserObject label="Reseñas" name="Alison Donovan" position="System Admin" location="Office 3" email="me@example.com" placeholders="1" id="a0p3vjBMCM_WjcR9u9X9-4">
          <mxCell style="label;whiteSpace=wrap;html=1;rounded=1;glass=0;fontSize=24;spacingLeft=0;align=center;strokeWidth=3;" vertex="1" parent="dNxyNK7c78bLwvsdeMH5-11">
            <mxGeometry x="643" y="180" width="180" height="80" as="geometry" />
          </mxCell>
        </UserObject>
        <UserObject label="Nosotros" name="Alison Donovan" position="System Admin" location="Office 3" email="me@example.com" placeholders="1" id="a0p3vjBMCM_WjcR9u9X9-6">
          <mxCell style="label;whiteSpace=wrap;html=1;rounded=1;glass=0;fontSize=24;spacingLeft=0;align=center;strokeWidth=3;" vertex="1" parent="dNxyNK7c78bLwvsdeMH5-11">
            <mxGeometry x="850" y="180" width="180" height="80" as="geometry" />
          </mxCell>
        </UserObject>
        <mxCell id="dNxyNK7c78bLwvsdeMH5-17" value="" style="endArrow=none;endFill=0;fontSize=24;edgeStyle=elbowEdgeStyle;elbow=vertical;rounded=0;strokeWidth=3;" parent="dNxyNK7c78bLwvsdeMH5-11" source="dNxyNK7c78bLwvsdeMH5-12" target="dNxyNK7c78bLwvsdeMH5-18" edge="1">
          <mxGeometry relative="1" as="geometry" />
        </mxCell>
        <mxCell id="dNxyNK7c78bLwvsdeMH5-13" value="" style="endArrow=none;endFill=0;fontSize=24;edgeStyle=elbowEdgeStyle;elbow=vertical;rounded=0;strokeWidth=3;" parent="dNxyNK7c78bLwvsdeMH5-11" target="dNxyNK7c78bLwvsdeMH5-14" edge="1">
          <mxGeometry relative="1" as="geometry">
            <mxPoint x="110" y="120" as="sourcePoint" />
          </mxGeometry>
        </mxCell>
        <mxCell id="dNxyNK7c78bLwvsdeMH5-15" value="" style="endArrow=none;endFill=0;fontSize=24;edgeStyle=elbowEdgeStyle;elbow=vertical;rounded=0;exitX=0.295;exitY=1;exitDx=0;exitDy=0;exitPerimeter=0;strokeWidth=3;" parent="dNxyNK7c78bLwvsdeMH5-11" source="dNxyNK7c78bLwvsdeMH5-12" target="dNxyNK7c78bLwvsdeMH5-16" edge="1">
          <mxGeometry relative="1" as="geometry" />
        </mxCell>
        <mxCell id="a0p3vjBMCM_WjcR9u9X9-3" value="" style="endArrow=none;endFill=0;fontSize=24;edgeStyle=elbowEdgeStyle;elbow=vertical;rounded=0;exitX=0.705;exitY=1.006;exitDx=0;exitDy=0;exitPerimeter=0;strokeWidth=3;" edge="1" target="a0p3vjBMCM_WjcR9u9X9-4" source="dNxyNK7c78bLwvsdeMH5-12" parent="dNxyNK7c78bLwvsdeMH5-11">
          <mxGeometry relative="1" as="geometry">
            <mxPoint x="370" y="200" as="sourcePoint" />
            <Array as="points">
              <mxPoint x="732" y="140" />
            </Array>
          </mxGeometry>
        </mxCell>
        <mxCell id="a0p3vjBMCM_WjcR9u9X9-5" value="" style="endArrow=none;endFill=0;fontSize=24;edgeStyle=elbowEdgeStyle;elbow=vertical;rounded=0;exitX=0.911;exitY=1;exitDx=0;exitDy=0;exitPerimeter=0;strokeWidth=3;" edge="1" target="a0p3vjBMCM_WjcR9u9X9-6" source="dNxyNK7c78bLwvsdeMH5-12" parent="dNxyNK7c78bLwvsdeMH5-11">
          <mxGeometry relative="1" as="geometry">
            <mxPoint x="370" y="200" as="sourcePoint" />
          </mxGeometry>
        </mxCell>
      </root>
    </mxGraphModel>
  </diagram>
</mxfile>
